<?xml version="1.0" encoding="iso-8859-1"?>
<!-- Generator: Adobe Illustrator 19.0.0, SVG Export Plug-In . SVG Version: 6.00 Build 0)  -->
<svg version="1.1" id="Layer_1" xmlns="http://www.w3.org/2000/svg" xmlns:xlink="http://www.w3.org/1999/xlink" x="0px" y="0px"
	 viewBox="0 0 512 512" style="enable-background:new 0 0 512 512;" xml:space="preserve">
<circle style="fill:#386895;" cx="256" cy="256" r="256"/>
<path style="fill:#273B7A;" d="M511.155,235.192L386.184,110.221c-84.78,37.929-148.504,109.758-199.14,188.876
	c-19.434,28.639-36.605,56.992-55.146,84.911l127.819,127.945C399.386,509.962,512,396.141,512,256
	C512,248.994,511.707,242.055,511.155,235.192z"/>
<path style="fill:#FFEDB5;" d="M392.261,116.929c-33.297-44.884-163.225-45.125-236.066,27.717
	c-72.844,72.842-85.252,178.533-27.719,236.066s159.923,48.902,236.244-16.196c17.615-15.026,31.018-59.17-15.744-60.063
	c-36.474-0.696-76.179-45.22,35.402-116.851C417.473,166.357,403.587,132.196,392.261,116.929z M276.128,266.521
	c-1.889,16.174-12.164,28.262-22.949,26.996c-10.785-1.265-17.994-15.401-16.105-31.575c1.889-16.174,12.164-28.262,22.949-26.996
	C270.808,236.211,278.018,250.347,276.128,266.521z"/>
<path style="fill:#FEE187;" d="M392.261,116.929c-0.876-1.181-1.834-2.324-2.841-3.443L267.417,238.195
	c6.449,5.287,10.125,16.236,8.711,28.326c-1.889,16.174-12.164,28.262-22.949,26.996c-9.075-1.064-15.596-11.254-16.315-24.092
	L128.236,380.463c0.081,0.083,0.159,0.167,0.241,0.248c57.534,57.534,159.923,48.902,236.244-16.196
	c17.615-15.026,31.018-59.17-15.744-60.063c-36.474-0.696-76.179-45.22,35.402-116.851
	C417.473,166.357,403.587,132.196,392.261,116.929z"/>
<circle style="fill:#D48B07;" cx="325.404" cy="148.29" r="19.658"/>
<circle style="fill:#FF6262;" cx="235.313" cy="166.357" r="19.658"/>
<circle style="fill:#38C6D9;" cx="168.15" cy="226.918" r="19.658"/>
<circle style="fill:#D48B07;" cx="148.497" cy="305.545" r="19.658"/>
<circle style="fill:#FFC61B;" cx="187.802" cy="364.52" r="19.658"/>
<circle style="fill:#FF6262;" cx="266.43" cy="364.52" r="19.658"/>
<g>
</g>
<g>
</g>
<g>
</g>
<g>
</g>
<g>
</g>
<g>
</g>
<g>
</g>
<g>
</g>
<g>
</g>
<g>
</g>
<g>
</g>
<g>
</g>
<g>
</g>
<g>
</g>
<g>
</g>
</svg>
