<?xml version="1.0" encoding="UTF-8" standalone="no"?>
<!-- Created with Inkscape (http://www.inkscape.org/) -->

<svg
   xmlns:dc="http://purl.org/dc/elements/1.1/"
   xmlns:cc="http://creativecommons.org/ns#"
   xmlns:rdf="http://www.w3.org/1999/02/22-rdf-syntax-ns#"
   xmlns:svg="http://www.w3.org/2000/svg"
   xmlns="http://www.w3.org/2000/svg"
   xmlns:sodipodi="http://sodipodi.sourceforge.net/DTD/sodipodi-0.dtd"
   xmlns:inkscape="http://www.inkscape.org/namespaces/inkscape"
   width="210mm"
   height="210mm"
   viewBox="0 0 210 210"
   version="1.1"
   id="svg6564"
   inkscape:version="0.92.3 (2405546, 2018-03-11)"
   sodipodi:docname="handicap.svg">
  <defs
     id="defs6558" />
  <sodipodi:namedview
     id="base"
     pagecolor="#ffffff"
     bordercolor="#666666"
     borderopacity="1.0"
     inkscape:pageopacity="0.0"
     inkscape:pageshadow="2"
     inkscape:zoom="0.7"
     inkscape:cx="448.20408"
     inkscape:cy="386.62034"
     inkscape:document-units="mm"
     inkscape:current-layer="layer1"
     showgrid="false"
     inkscape:lockguides="true"
     inkscape:window-width="1920"
     inkscape:window-height="1000"
     inkscape:window-x="-11"
     inkscape:window-y="35"
     inkscape:window-maximized="1" />
  <metadata
     id="metadata6561">
    <rdf:RDF>
      <cc:Work
         rdf:about="">
        <dc:format>image/svg+xml</dc:format>
        <dc:type
           rdf:resource="http://purl.org/dc/dcmitype/StillImage" />
        <dc:title></dc:title>
      </cc:Work>
    </rdf:RDF>
  </metadata>
  <g
     inkscape:label="Calque 1"
     inkscape:groupmode="layer"
     id="layer1"
     transform="translate(0,-87)">
    <circle
       style="fill:#ffffff;fill-opacity:1;stroke:#000000;stroke-width:2.20000005;stroke-miterlimit:4;stroke-dasharray:none;stroke-opacity:1;paint-order:markers stroke fill"
       id="path7111"
       cx="105"
       cy="192"
       r="103.34243" />
    <g
       transform="matrix(10.562724,0,0,10.562724,-132.85688,208.54929)"
       id="layer1-3"
       style="fill:#ffffff">
      <g
         transform="translate(-2.013677,-0.894333)"
         style="fill:#ffffff"
         id="accessSymbol">
        <path
           inkscape:connector-curvature="0"
           d="M 6.1403295,3.6605578 C 6.7233613,3.6067297 7.1763388,3.1044287 7.1763388,2.516915 c 0,-0.6323666 -0.5157692,-1.148136 -1.148136,-1.148136 -0.6323667,0 -1.1481133,0.5157694 -1.1481133,1.148136 0,0.1928462 0.053805,0.3901743 0.1435113,0.5561177 l 0.409094,5.7564638 4.2133293,0.00114 1.7281339,4.0491085 2.268902,-0.889807 -0.351342,-0.836617 -1.269774,0.458361 -1.672071,-3.8602768 -3.9174802,0.026321 -0.053782,-0.7290064 2.8359448,0.00113 V 5.9711992 l -2.9441258,-0.00115 z"
           style="fill:#ffffff;fill-rule:evenodd"
           id="person" />
        <path
           inkscape:connector-curvature="0"
           d="m 10.377836,11.916107 c -0.7111243,1.405736 -2.1995409,2.331853 -3.7871747,2.331853 -2.3318534,0 -4.2337203,-1.901866 -4.2337203,-4.23372 0,-1.6372648 0.9922853,-3.1587424 2.4729699,-3.8332022 l 0.095819,1.250421 c -0.8757795,0.5518637 -1.4156575,1.547616 -1.4156575,2.5913572 0,1.691595 1.3796655,3.071238 3.0712377,3.071238 1.5476047,0 2.8672838,-1.187686 3.0472432,-2.711319 z"
           style="fill:#ffffff;fill-rule:evenodd"
           id="wheel" />
      </g>
    </g>
    <circle
       style="fill:#003f87;fill-opacity:1;stroke:none;stroke-width:0.31553519;stroke-miterlimit:4;stroke-dasharray:none;stroke-opacity:1;paint-order:markers stroke fill"
       id="path7111-1"
       cx="104.62203"
       cy="191.62202"
       r="97.887146" />
    <g
       transform="matrix(11.210798,0,0,11.210798,-157.36151,174.40663)"
       id="layer1-7"
       style="fill:#ffffff">
      <g
         transform="translate(-2.013677,-0.894333)"
         style="fill:#ffffff"
         id="accessSymbol-3">
        <path
           inkscape:connector-curvature="0"
           d="M 6.1403295,3.6605578 C 6.7233613,3.6067297 7.1763388,3.1044287 7.1763388,2.516915 c 0,-0.6323666 -0.5157692,-1.148136 -1.148136,-1.148136 -0.6323667,0 -1.1481133,0.5157694 -1.1481133,1.148136 0,0.1928462 0.053805,0.3901743 0.1435113,0.5561177 l 0.409094,5.7564638 4.2133293,0.00114 1.7281339,4.0491085 2.268902,-0.889807 -0.351342,-0.836617 -1.269774,0.458361 -1.672071,-3.8602768 -3.9174802,0.026321 -0.053782,-0.7290064 2.8359448,0.00113 V 5.9711992 l -2.9441258,-0.00115 z"
           style="fill:#ffffff;fill-rule:evenodd"
           id="person-0" />
        <path
           inkscape:connector-curvature="0"
           d="m 10.377836,11.916107 c -0.7111243,1.405736 -2.1995409,2.331853 -3.7871747,2.331853 -2.3318534,0 -4.2337203,-1.901866 -4.2337203,-4.23372 0,-1.6372648 0.9922853,-3.1587424 2.4729699,-3.8332022 l 0.095819,1.250421 c -0.8757795,0.5518637 -1.4156575,1.547616 -1.4156575,2.5913572 0,1.691595 1.3796655,3.071238 3.0712377,3.071238 1.5476047,0 2.8672838,-1.187686 3.0472432,-2.711319 z"
           style="fill:#ffffff;fill-rule:evenodd"
           id="wheel-3" />
      </g>
    </g>
    <g
       transform="matrix(12.811692,0,0,12.811692,28.305067,103.41949)"
       id="layer1-5"
       style="fill:#ffffff">
      <g
         transform="translate(-2.013677,-0.894333)"
         style="fill:#ffffff"
         id="accessSymbol-7">
        <path
           inkscape:connector-curvature="0"
           d="M 6.1403295,3.6605578 C 6.7233613,3.6067297 7.1763388,3.1044287 7.1763388,2.516915 c 0,-0.6323666 -0.5157692,-1.148136 -1.148136,-1.148136 -0.6323667,0 -1.1481133,0.5157694 -1.1481133,1.148136 0,0.1928462 0.053805,0.3901743 0.1435113,0.5561177 l 0.409094,5.7564638 4.2133293,0.00114 1.7281339,4.0491085 2.268902,-0.889807 -0.351342,-0.836617 -1.269774,0.458361 -1.672071,-3.8602768 -3.9174802,0.026321 -0.053782,-0.7290064 2.8359448,0.00113 V 5.9711992 l -2.9441258,-0.00115 z"
           style="fill:#ffffff;fill-rule:evenodd"
           id="person-9" />
        <path
           inkscape:connector-curvature="0"
           d="m 10.377836,11.916107 c -0.7111243,1.405736 -2.1995409,2.331853 -3.7871747,2.331853 -2.3318534,0 -4.2337203,-1.901866 -4.2337203,-4.23372 0,-1.6372648 0.9922853,-3.1587424 2.4729699,-3.8332022 l 0.095819,1.250421 c -0.8757795,0.5518637 -1.4156575,1.547616 -1.4156575,2.5913572 0,1.691595 1.3796655,3.071238 3.0712377,3.071238 1.5476047,0 2.8672838,-1.187686 3.0472432,-2.711319 z"
           style="fill:#ffffff;fill-rule:evenodd"
           id="wheel-4" />
      </g>
    </g>
  </g>
</svg>
